<?xml version="1.0" standalone="no"?>
<!DOCTYPE svg PUBLIC "-//W3C//DTD SVG 20010904//EN"
 "http://www.w3.org/TR/2001/REC-SVG-20010904/DTD/svg10.dtd">
<svg version="1.0" xmlns="http://www.w3.org/2000/svg"
 width="200.000000pt" height="200.000000pt" viewBox="0 0 200.000000 200.000000"
 preserveAspectRatio="xMidYMid meet">
<metadata>
Created by potrace 1.11, written by Peter Selinger 2001-2013
</metadata>
<g transform="translate(0.000000,200.000000) scale(0.100000,-0.100000)"
fill="#000000" stroke="none">
<path d="M1256 1623 c-7 -21 -59 -53 -86 -53 -27 0 -30 -11 -21 -70 5 -34 5
-63 -2 -81 -14 -36 3 -60 28 -39 13 10 21 6 56 -29 23 -22 43 -41 45 -41 2 0
22 18 45 41 32 32 46 39 64 35 32 -8 45 16 31 60 l-11 34 -67 0 c-39 0 -68 -4
-68 -10 0 -5 24 -10 53 -10 61 0 70 -5 57 -30 -11 -20 -78 -62 -89 -56 -4 3
-13 1 -21 -4 -25 -16 -84 47 -91 97 -9 61 29 103 107 118 27 5 36 1 68 -35 40
-45 66 -47 66 -6 0 29 -10 38 -30 26 -15 -9 -80 37 -80 58 0 19 -48 15 -54 -5z"/>
<path d="M1327 1213 c-4 -4 -4 -21 -1 -40 11 -57 -1 -80 -43 -86 -24 -3 -47 1
-62 10 -21 14 -23 20 -17 65 6 43 5 49 -10 46 -24 -4 -28 -133 -4 -133 8 0 30
-6 48 -14 30 -13 33 -17 28 -44 -7 -34 -42 -63 -68 -59 -20 4 -24 -23 -9 -47
12 -19 -6 -69 -29 -81 -37 -20 -100 -9 -100 16 0 8 -9 14 -20 14 -11 0 -20 -6
-20 -13 0 -18 -53 -43 -58 -28 -2 6 -12 11 -21 11 -10 0 -26 9 -36 20 l-18 20
-19 -20 c-10 -11 -24 -21 -31 -21 -7 -1 -19 -2 -27 -3 -11 -1 -14 -11 -12 -45
3 -34 -1 -48 -20 -68 -43 -47 -57 -48 -90 -11 -27 30 -29 37 -23 81 6 47 6 47
-23 47 -19 0 -35 8 -44 22 l-14 21 -27 -28 c-14 -16 -29 -27 -31 -24 -10 9
-11 123 -2 141 6 13 3 20 -9 24 -23 9 -43 -12 -27 -28 14 -14 16 -128 2 -128
-14 0 -13 -26 2 -50 10 -16 10 -24 0 -40 -18 -29 -15 -52 6 -48 13 3 16 12 14
42 -5 56 19 86 67 86 30 0 42 -5 55 -25 19 -28 21 -56 5 -72 -15 -15 -4 -43
16 -43 9 0 30 -7 47 -16 28 -15 31 -14 53 6 30 28 76 24 90 -7 12 -27 27 -29
46 -6 8 9 29 22 47 30 17 7 32 20 32 28 0 22 -38 18 -45 -5 -5 -16 -15 -20
-46 -20 -33 0 -41 4 -49 26 -6 14 -10 27 -10 30 0 2 29 4 65 4 49 0 65 3 65
14 0 20 46 47 87 51 50 5 77 -24 70 -76 -5 -40 7 -59 25 -41 6 6 6 16 0 28
-16 32 4 83 36 90 15 3 35 8 44 11 28 7 55 -59 41 -97 -12 -32 -8 -40 20 -40
16 0 18 5 12 40 -11 67 7 91 73 95 30 1 35 -3 49 -44 9 -25 10 -38 2 -48 -17
-20 -2 -46 23 -40 15 4 29 -3 49 -24 24 -26 26 -34 18 -61 -6 -21 -5 -36 3
-45 7 -9 8 -31 3 -66 -12 -86 -11 -102 5 -102 12 0 14 12 12 62 -4 69 3 103
22 103 14 0 50 -46 60 -77 4 -12 13 -27 21 -33 8 -7 15 -21 15 -32 0 -13 6
-18 17 -16 25 5 28 29 4 35 -19 5 -61 74 -61 101 0 16 30 30 52 24 18 -4 19 0
18 39 -2 24 1 52 5 61 9 22 -3 41 -22 34 -8 -3 -24 5 -37 19 -13 14 -25 25
-28 25 -3 0 -17 -11 -32 -25 -35 -33 -71 -32 -102 2 -21 23 -25 34 -20 65 6
35 4 37 -29 49 -19 7 -35 17 -35 21 0 15 -30 8 -50 -12 -28 -28 -64 -25 -89 6
-37 48 -20 106 34 116 16 3 20 12 22 48 2 46 20 70 55 70 19 0 25 25 8 35 -5
3 -10 17 -10 30 0 13 5 27 10 30 15 9 12 45 -3 45 -8 0 -17 -3 -20 -7z m-401
-395 c1 -2 4 -14 6 -28 3 -23 1 -24 -52 -23 -61 1 -78 20 -40 46 17 12 76 15
86 5z m712 -155 c6 -15 12 -35 12 -44 0 -19 -45 -59 -65 -59 -20 0 -65 40 -65
59 0 37 24 70 55 73 42 5 48 1 63 -29z"/>
<path d="M198 1069 c-10 -5 -18 -16 -18 -24 0 -23 -72 -55 -94 -43 -15 9 -22
7 -33 -8 -17 -23 -17 -63 0 -70 15 -5 12 -77 -6 -112 -14 -30 2 -58 33 -54 33
3 90 -28 101 -55 10 -26 46 -32 55 -9 9 24 82 66 113 66 17 0 31 6 35 16 8 21
8 20 -9 38 -17 16 -45 11 -45 -8 0 -18 -75 -60 -108 -60 -49 0 -106 32 -126
69 -19 34 -18 59 5 117 13 32 90 89 96 71 6 -16 35 -17 50 -2 15 15 87 -16 80
-35 -3 -8 0 -22 7 -32 19 -25 46 -11 46 23 -1 24 -8 32 -61 55 -38 18 -63 35
-66 48 -6 22 -28 25 -55 9z"/>
<path d="M1770 686 c0 -8 5 -18 10 -21 6 -4 8 -10 6 -14 -3 -4 -6 -60 -7 -125
l-1 -119 86 -1 c47 0 86 2 86 7 0 4 0 10 0 14 0 4 -31 6 -69 4 -48 -2 -71 1
-77 10 -11 18 -4 211 8 226 5 7 7 17 3 23 -9 15 -45 12 -45 -4z"/>
</g>
</svg>
